{
	"asset":{
		"generator":"Khronos glTF Blender I/O v3.6.28",
		"version":"2.0"
	},
	"extensionsUsed":[
		"KHR_materials_transmission",
		"KHR_materials_emissive_strength",
		"KHR_materials_ior"
	],
	"scene":0,
	"scenes":[
		{
			"name":"Scene",
			"nodes":[
				0
			]
		}
	],
	"nodes":[
		{
			"mesh":0,
			"name":"Plane.006",
			"rotation":[
				0,
				0,
				-0.7071068286895752,
				0.7071068286895752
			],
			"scale":[
				0.6098663210868835,
				1,
				0.5761052370071411
			],
			"translation":[
				0.07803332805633545,
				4.879300117492676,
				0
			]
		}
	],
	"materials":[
		{
			"doubleSided":true,
			"name":"Material.027",
			"pbrMetallicRoughness":{
				"baseColorFactor":[
					0.8000000715255737,
					0.4706220328807831,
					0.4293149411678314,
					1
				],
				"metallicFactor":0,
				"roughnessFactor":0.5
			}
		},
		{
			"doubleSided":true,
			"emissiveFactor":[
				1,
				0.887129545211792,
				0.3138572573661804
			],
			"extensions":{
				"KHR_materials_transmission":{
					"transmissionFactor":0.5595238208770752
				},
				"KHR_materials_emissive_strength":{
					"emissiveStrength":15.999999046325684
				},
				"KHR_materials_ior":{
					"ior":1.4500000476837158
				}
			},
			"name":"Material.007",
			"pbrMetallicRoughness":{
				"baseColorFactor":[
					0.03310380131006241,
					0.03310380131006241,
					0.03310380131006241,
					1
				],
				"metallicFactor":0,
				"roughnessFactor":0.5
			}
		}
	],
	"meshes":[
		{
			"name":"Plane.005",
			"primitives":[
				{
					"attributes":{
						"POSITION":0,
						"NORMAL":1,
						"TEXCOORD_0":2
					},
					"indices":3,
					"material":0
				},
				{
					"attributes":{
						"POSITION":4,
						"NORMAL":5,
						"TEXCOORD_0":6
					},
					"indices":7,
					"material":1
				}
			]
		}
	],
	"accessors":[
		{
			"bufferView":0,
			"componentType":5126,
			"count":542,
			"max":[
				2.4733986854553223,
				1.5151759386062622,
				2.568467617034912
			],
			"min":[
				-2.349891185760498,
				-1.6411702632904053,
				-2.5441641807556152
			],
			"type":"VEC3"
		},
		{
			"bufferView":1,
			"componentType":5126,
			"count":542,
			"type":"VEC3"
		},
		{
			"bufferView":2,
			"componentType":5126,
			"count":542,
			"type":"VEC2"
		},
		{
			"bufferView":3,
			"componentType":5123,
			"count":828,
			"type":"SCALAR"
		},
		{
			"bufferView":4,
			"componentType":5126,
			"count":16,
			"max":[
				0.7500507831573486,
				-1.340108036994934,
				1.9266693592071533
			],
			"min":[
				-0.5066659450531006,
				-1.507629632949829,
				-1.9023659229278564
			],
			"type":"VEC3"
		},
		{
			"bufferView":5,
			"componentType":5126,
			"count":16,
			"type":"VEC3"
		},
		{
			"bufferView":6,
			"componentType":5126,
			"count":16,
			"type":"VEC2"
		},
		{
			"bufferView":7,
			"componentType":5123,
			"count":24,
			"type":"SCALAR"
		}
	],
	"bufferViews":[
		{
			"buffer":0,
			"byteLength":6504,
			"byteOffset":0,
			"target":34962
		},
		{
			"buffer":0,
			"byteLength":6504,
			"byteOffset":6504,
			"target":34962
		},
		{
			"buffer":0,
			"byteLength":4336,
			"byteOffset":13008,
			"target":34962
		},
		{
			"buffer":0,
			"byteLength":1656,
			"byteOffset":17344,
			"target":34963
		},
		{
			"buffer":0,
			"byteLength":192,
			"byteOffset":19000,
			"target":34962
		},
		{
			"buffer":0,
			"byteLength":192,
			"byteOffset":19192,
			"target":34962
		},
		{
			"buffer":0,
			"byteLength":128,
			"byteOffset":19384,
			"target":34962
		},
		{
			"buffer":0,
			"byteLength":48,
			"byteOffset":19512,
			"target":34963
		}
	],
	"buffers":[
		{
			"byteLength":19560,
			"uri":"data:application/octet-stream;base64,"
		}
	]
}
