{
	"asset":{
		"generator":"Khronos glTF Blender I/O v3.6.28",
		"version":"2.0"
	},
	"extensionsUsed":[
		"KHR_materials_transmission",
		"KHR_materials_emissive_strength",
		"KHR_materials_ior"
	],
	"scene":0,
	"scenes":[
		{
			"name":"Scene",
			"nodes":[
				0
			]
		}
	],
	"nodes":[
		{
			"mesh":0,
			"name":"Cube.073",
			"rotation":[
				-0.5000000596046448,
				-0.5,
				0.5,
				0.5
			],
			"scale":[
				-0.8699424862861633,
				-0.22136253118515015,
				-0.21237778663635254
			],
			"translation":[
				0,
				-9.227226257324219,
				-1.4328616857528687
			]
		}
	],
	"materials":[
		{
			"doubleSided":true,
			"emissiveFactor":[
				1,
				0.887129545211792,
				0.3138572573661804
			],
			"extensions":{
				"KHR_materials_transmission":{
					"transmissionFactor":0.5595238208770752
				},
				"KHR_materials_emissive_strength":{
					"emissiveStrength":15.999999046325684
				},
				"KHR_materials_ior":{
					"ior":1.4500000476837158
				}
			},
			"name":"Material.076",
			"pbrMetallicRoughness":{
				"baseColorFactor":[
					0.03310380131006241,
					0.03310380131006241,
					0.03310380131006241,
					1
				],
				"metallicFactor":0,
				"roughnessFactor":0.5
			}
		},
		{
			"doubleSided":true,
			"name":"Material.075",
			"pbrMetallicRoughness":{
				"baseColorFactor":[
					0.1457032561302185,
					0.14746753871440887,
					0.18728913366794586,
					1
				],
				"metallicFactor":0,
				"roughnessFactor":0.5
			}
		}
	],
	"meshes":[
		{
			"name":"Cube.105",
			"primitives":[
				{
					"attributes":{
						"POSITION":0,
						"NORMAL":1,
						"TEXCOORD_0":2
					},
					"indices":3,
					"material":0
				},
				{
					"attributes":{
						"POSITION":4,
						"NORMAL":5,
						"TEXCOORD_0":6
					},
					"indices":7,
					"material":1
				}
			]
		}
	],
	"accessors":[
		{
			"bufferView":0,
			"componentType":5126,
			"count":6,
			"max":[
				0.10001657158136368,
				0.992169976234436,
				-6.775355339050293
			],
			"min":[
				-0.11049776524305344,
				-0.992169976234436,
				-7.049800872802734
			],
			"type":"VEC3"
		},
		{
			"bufferView":1,
			"componentType":5126,
			"count":6,
			"type":"VEC3"
		},
		{
			"bufferView":2,
			"componentType":5126,
			"count":6,
			"type":"VEC2"
		},
		{
			"bufferView":3,
			"componentType":5123,
			"count":12,
			"type":"SCALAR"
		},
		{
			"bufferView":4,
			"componentType":5126,
			"count":318,
			"max":[
				1.4948502779006958,
				5.696645259857178,
				11.861590385437012
			],
			"min":[
				-0.3226794898509979,
				-5.696645259857178,
				-15.45222282409668
			],
			"type":"VEC3"
		},
		{
			"bufferView":5,
			"componentType":5126,
			"count":318,
			"type":"VEC3"
		},
		{
			"bufferView":6,
			"componentType":5126,
			"count":318,
			"type":"VEC2"
		},
		{
			"bufferView":7,
			"componentType":5123,
			"count":540,
			"type":"SCALAR"
		}
	],
	"bufferViews":[
		{
			"buffer":0,
			"byteLength":72,
			"byteOffset":0,
			"target":34962
		},
		{
			"buffer":0,
			"byteLength":72,
			"byteOffset":72,
			"target":34962
		},
		{
			"buffer":0,
			"byteLength":48,
			"byteOffset":144,
			"target":34962
		},
		{
			"buffer":0,
			"byteLength":24,
			"byteOffset":192,
			"target":34963
		},
		{
			"buffer":0,
			"byteLength":3816,
			"byteOffset":216,
			"target":34962
		},
		{
			"buffer":0,
			"byteLength":3816,
			"byteOffset":4032,
			"target":34962
		},
		{
			"buffer":0,
			"byteLength":2544,
			"byteOffset":7848,
			"target":34962
		},
		{
			"buffer":0,
			"byteLength":1080,
			"byteOffset":10392,
			"target":34963
		}
	],
	"buffers":[
		{
			"byteLength":11472,
			"uri":"data:application/octet-stream;base64,"
		}
	]
}
