{
	"asset":{
		"generator":"Khronos glTF Blender I/O v3.6.28",
		"version":"2.0"
	},
	"scene":0,
	"scenes":[
		{
			"name":"Scene",
			"nodes":[
				0
			]
		}
	],
	"nodes":[
		{
			"mesh":0,
			"name":"Sphere.008",
			"scale":[
				0.2711530327796936,
				0.2711530327796936,
				0.2711530327796936
			],
			"translation":[
				0.4702399671077728,
				0.010886669158935547,
				-4.649119853973389
			]
		}
	],
	"materials":[
		{
			"doubleSided":true,
			"name":"Material.031",
			"pbrMetallicRoughness":{
				"baseColorFactor":[
					0.03310380131006241,
					0.03310380131006241,
					0.03310380131006241,
					1
				],
				"metallicFactor":0,
				"roughnessFactor":0.5
			}
		},
		{
			"doubleSided":true,
			"name":"Material.034",
			"pbrMetallicRoughness":{
				"baseColorFactor":[
					0.8000000715255737,
					0.4706220328807831,
					0.4293149411678314,
					1
				],
				"metallicFactor":0,
				"roughnessFactor":0.5
			}
		}
	],
	"meshes":[
		{
			"name":"Sphere.009",
			"primitives":[
				{
					"attributes":{
						"POSITION":0,
						"NORMAL":1,
						"TEXCOORD_0":2
					},
					"indices":3,
					"material":0
				},
				{
					"attributes":{
						"POSITION":4,
						"NORMAL":5,
						"TEXCOORD_0":6
					},
					"indices":7,
					"material":1
				}
			]
		}
	],
	"accessors":[
		{
			"bufferView":0,
			"componentType":5126,
			"count":182,
			"max":[
				1.4280091524124146,
				0.6184585690498352,
				0.8137807846069336
			],
			"min":[
				-1.4280091524124146,
				-2.0938520431518555,
				-2.6066627502441406
			],
			"type":"VEC3"
		},
		{
			"bufferView":1,
			"componentType":5126,
			"count":182,
			"type":"VEC3"
		},
		{
			"bufferView":2,
			"componentType":5126,
			"count":182,
			"type":"VEC2"
		},
		{
			"bufferView":3,
			"componentType":5123,
			"count":342,
			"type":"SCALAR"
		},
		{
			"bufferView":4,
			"componentType":5126,
			"count":238,
			"max":[
				1.4392744302749634,
				-0.002765655517578125,
				0.7331314086914062
			],
			"min":[
				-1.4392744302749634,
				-2.930220603942871,
				-2.6066627502441406
			],
			"type":"VEC3"
		},
		{
			"bufferView":5,
			"componentType":5126,
			"count":238,
			"type":"VEC3"
		},
		{
			"bufferView":6,
			"componentType":5126,
			"count":238,
			"type":"VEC2"
		},
		{
			"bufferView":7,
			"componentType":5123,
			"count":456,
			"type":"SCALAR"
		}
	],
	"bufferViews":[
		{
			"buffer":0,
			"byteLength":2184,
			"byteOffset":0,
			"target":34962
		},
		{
			"buffer":0,
			"byteLength":2184,
			"byteOffset":2184,
			"target":34962
		},
		{
			"buffer":0,
			"byteLength":1456,
			"byteOffset":4368,
			"target":34962
		},
		{
			"buffer":0,
			"byteLength":684,
			"byteOffset":5824,
			"target":34963
		},
		{
			"buffer":0,
			"byteLength":2856,
			"byteOffset":6508,
			"target":34962
		},
		{
			"buffer":0,
			"byteLength":2856,
			"byteOffset":9364,
			"target":34962
		},
		{
			"buffer":0,
			"byteLength":1904,
			"byteOffset":12220,
			"target":34962
		},
		{
			"buffer":0,
			"byteLength":912,
			"byteOffset":14124,
			"target":34963
		}
	],
	"buffers":[
		{
			"byteLength":15036,
			"uri":"data:application/octet-stream;base64,"
		}
	]
}
