{
	"asset":{
		"generator":"Khronos glTF Blender I/O v3.6.28",
		"version":"2.0"
	},
	"extensionsUsed":[
		"KHR_materials_transmission",
		"KHR_materials_emissive_strength",
		"KHR_materials_ior"
	],
	"scene":0,
	"scenes":[
		{
			"name":"Scene",
			"nodes":[
				0
			]
		}
	],
	"nodes":[
		{
			"mesh":0,
			"name":"Cube.047",
			"scale":[
				0.7964606881141663,
				0.7964606881141663,
				0.42744380235671997
			],
			"translation":[
				0.2830793857574463,
				7.100625991821289,
				0
			]
		}
	],
	"materials":[
		{
			"doubleSided":true,
			"name":"Material.043",
			"pbrMetallicRoughness":{
				"baseColorFactor":[
					0.1457032561302185,
					0.14746753871440887,
					0.18728913366794586,
					1
				],
				"metallicFactor":0,
				"roughnessFactor":0.5
			}
		},
		{
			"doubleSided":true,
			"emissiveFactor":[
				1,
				0.887129545211792,
				0.3138572573661804
			],
			"extensions":{
				"KHR_materials_transmission":{
					"transmissionFactor":0.5595238208770752
				},
				"KHR_materials_emissive_strength":{
					"emissiveStrength":12.999999046325684
				},
				"KHR_materials_ior":{
					"ior":1.4500000476837158
				}
			},
			"name":"Material.009",
			"pbrMetallicRoughness":{
				"baseColorFactor":[
					0.03310380131006241,
					0.03310380131006241,
					0.03310380131006241,
					1
				],
				"metallicFactor":0,
				"roughnessFactor":0.5
			}
		}
	],
	"meshes":[
		{
			"name":"Cube.001",
			"primitives":[
				{
					"attributes":{
						"POSITION":0,
						"NORMAL":1,
						"TEXCOORD_0":2
					},
					"indices":3,
					"material":0
				},
				{
					"attributes":{
						"POSITION":4,
						"NORMAL":5,
						"TEXCOORD_0":6
					},
					"indices":7,
					"material":1
				}
			]
		}
	],
	"accessors":[
		{
			"bufferView":0,
			"componentType":5126,
			"count":260,
			"max":[
				1,
				2.7828826904296875,
				3.074784755706787
			],
			"min":[
				-1.299512505531311,
				-0.1376781463623047,
				-3.074784755706787
			],
			"type":"VEC3"
		},
		{
			"bufferView":1,
			"componentType":5126,
			"count":260,
			"type":"VEC3"
		},
		{
			"bufferView":2,
			"componentType":5126,
			"count":260,
			"type":"VEC2"
		},
		{
			"bufferView":3,
			"componentType":5123,
			"count":420,
			"type":"SCALAR"
		},
		{
			"bufferView":4,
			"componentType":5126,
			"count":6,
			"max":[
				-1.001863718032837,
				1.396482229232788,
				0.5375373363494873
			],
			"min":[
				-1.001863718032837,
				0.32816141843795776,
				-0.5375373363494873
			],
			"type":"VEC3"
		},
		{
			"bufferView":5,
			"componentType":5126,
			"count":6,
			"type":"VEC3"
		},
		{
			"bufferView":6,
			"componentType":5126,
			"count":6,
			"type":"VEC2"
		},
		{
			"bufferView":7,
			"componentType":5123,
			"count":12,
			"type":"SCALAR"
		}
	],
	"bufferViews":[
		{
			"buffer":0,
			"byteLength":3120,
			"byteOffset":0,
			"target":34962
		},
		{
			"buffer":0,
			"byteLength":3120,
			"byteOffset":3120,
			"target":34962
		},
		{
			"buffer":0,
			"byteLength":2080,
			"byteOffset":6240,
			"target":34962
		},
		{
			"buffer":0,
			"byteLength":840,
			"byteOffset":8320,
			"target":34963
		},
		{
			"buffer":0,
			"byteLength":72,
			"byteOffset":9160,
			"target":34962
		},
		{
			"buffer":0,
			"byteLength":72,
			"byteOffset":9232,
			"target":34962
		},
		{
			"buffer":0,
			"byteLength":48,
			"byteOffset":9304,
			"target":34962
		},
		{
			"buffer":0,
			"byteLength":24,
			"byteOffset":9352,
			"target":34963
		}
	],
	"buffers":[
		{
			"byteLength":9376,
			"uri":"data:application/octet-stream;base64,"
		}
	]
}
