{
	"asset":{
		"generator":"Khronos glTF Blender I/O v3.6.28",
		"version":"2.0"
	},
	"extensionsUsed":[
		"KHR_materials_transmission",
		"KHR_materials_emissive_strength",
		"KHR_materials_ior"
	],
	"scene":0,
	"scenes":[
		{
			"name":"Scene",
			"nodes":[
				0
			]
		}
	],
	"nodes":[
		{
			"mesh":0,
			"name":"Sphere.020",
			"scale":[
				0.2711530327796936,
				0.2711530327796936,
				0.2711530327796936
			],
			"translation":[
				0.43053126335144043,
				1.2582783699035645,
				-4.068657875061035
			]
		}
	],
	"materials":[
		{
			"doubleSided":true,
			"name":"Material.043",
			"pbrMetallicRoughness":{
				"baseColorFactor":[
					0.1457032561302185,
					0.14746753871440887,
					0.18728913366794586,
					1
				],
				"metallicFactor":0,
				"roughnessFactor":0.5
			}
		},
		{
			"doubleSided":true,
			"emissiveFactor":[
				1,
				0.887129545211792,
				0.3138572573661804
			],
			"extensions":{
				"KHR_materials_transmission":{
					"transmissionFactor":0.5595238208770752
				},
				"KHR_materials_emissive_strength":{
					"emissiveStrength":15.999999046325684
				},
				"KHR_materials_ior":{
					"ior":1.4500000476837158
				}
			},
			"name":"Material.007",
			"pbrMetallicRoughness":{
				"baseColorFactor":[
					0.03310380131006241,
					0.03310380131006241,
					0.03310380131006241,
					1
				],
				"metallicFactor":0,
				"roughnessFactor":0.5
			}
		}
	],
	"meshes":[
		{
			"name":"Sphere.032",
			"primitives":[
				{
					"attributes":{
						"POSITION":0,
						"NORMAL":1,
						"TEXCOORD_0":2
					},
					"indices":3,
					"material":0
				},
				{
					"attributes":{
						"POSITION":4,
						"NORMAL":5,
						"TEXCOORD_0":6
					},
					"indices":7,
					"material":1
				}
			]
		}
	],
	"accessors":[
		{
			"bufferView":0,
			"componentType":5126,
			"count":454,
			"max":[
				3.2007246017456055,
				5.222975254058838,
				2.3515491485595703
			],
			"min":[
				-3.2007246017456055,
				-3.910871982574463,
				-4.705388069152832
			],
			"type":"VEC3"
		},
		{
			"bufferView":1,
			"componentType":5126,
			"count":454,
			"type":"VEC3"
		},
		{
			"bufferView":2,
			"componentType":5126,
			"count":454,
			"type":"VEC2"
		},
		{
			"bufferView":3,
			"componentType":5123,
			"count":708,
			"type":"SCALAR"
		},
		{
			"bufferView":4,
			"componentType":5126,
			"count":16,
			"max":[
				2.7303199768066406,
				-2.728808879852295,
				-0.6755548119544983
			],
			"min":[
				-2.7303199768066406,
				-3.7749996185302734,
				-4.488853931427002
			],
			"type":"VEC3"
		},
		{
			"bufferView":5,
			"componentType":5126,
			"count":16,
			"type":"VEC3"
		},
		{
			"bufferView":6,
			"componentType":5126,
			"count":16,
			"type":"VEC2"
		},
		{
			"bufferView":7,
			"componentType":5123,
			"count":24,
			"type":"SCALAR"
		}
	],
	"bufferViews":[
		{
			"buffer":0,
			"byteLength":5448,
			"byteOffset":0,
			"target":34962
		},
		{
			"buffer":0,
			"byteLength":5448,
			"byteOffset":5448,
			"target":34962
		},
		{
			"buffer":0,
			"byteLength":3632,
			"byteOffset":10896,
			"target":34962
		},
		{
			"buffer":0,
			"byteLength":1416,
			"byteOffset":14528,
			"target":34963
		},
		{
			"buffer":0,
			"byteLength":192,
			"byteOffset":15944,
			"target":34962
		},
		{
			"buffer":0,
			"byteLength":192,
			"byteOffset":16136,
			"target":34962
		},
		{
			"buffer":0,
			"byteLength":128,
			"byteOffset":16328,
			"target":34962
		},
		{
			"buffer":0,
			"byteLength":48,
			"byteOffset":16456,
			"target":34963
		}
	],
	"buffers":[
		{
			"byteLength":16504,
			"uri":"data:application/octet-stream;base64,"
		}
	]
}
