{
	"asset":{
		"generator":"Khronos glTF Blender I/O v3.6.28",
		"version":"2.0"
	},
	"extensionsUsed":[
		"KHR_materials_transmission",
		"KHR_materials_emissive_strength",
		"KHR_materials_ior"
	],
	"scene":0,
	"scenes":[
		{
			"name":"Scene",
			"nodes":[
				0
			]
		}
	],
	"nodes":[
		{
			"mesh":0,
			"name":"Plane.002",
			"rotation":[
				0,
				0,
				0.7071068286895752,
				0.7071068286895752
			],
			"translation":[
				-0.01080167293548584,
				-7.054709434509277,
				-1.4328620433807373
			]
		}
	],
	"materials":[
		{
			"doubleSided":true,
			"name":"Material.043",
			"pbrMetallicRoughness":{
				"baseColorFactor":[
					0.1457032561302185,
					0.14746753871440887,
					0.18728913366794586,
					1
				],
				"metallicFactor":0,
				"roughnessFactor":0.5
			}
		},
		{
			"doubleSided":true,
			"emissiveFactor":[
				1,
				0.887129545211792,
				0.3138572573661804
			],
			"extensions":{
				"KHR_materials_transmission":{
					"transmissionFactor":0.5595238208770752
				},
				"KHR_materials_emissive_strength":{
					"emissiveStrength":15.999999046325684
				},
				"KHR_materials_ior":{
					"ior":1.4500000476837158
				}
			},
			"name":"Material.007",
			"pbrMetallicRoughness":{
				"baseColorFactor":[
					0.03310380131006241,
					0.03310380131006241,
					0.03310380131006241,
					1
				],
				"metallicFactor":0,
				"roughnessFactor":0.5
			}
		}
	],
	"meshes":[
		{
			"name":"Plane.010",
			"primitives":[
				{
					"attributes":{
						"POSITION":0,
						"NORMAL":1,
						"TEXCOORD_0":2
					},
					"indices":3,
					"material":0
				},
				{
					"attributes":{
						"POSITION":4,
						"NORMAL":5,
						"TEXCOORD_0":6
					},
					"indices":7,
					"material":1
				}
			]
		}
	],
	"accessors":[
		{
			"bufferView":0,
			"componentType":5126,
			"count":326,
			"max":[
				2.127239942550659,
				1.3274755477905273,
				0.6149575710296631
			],
			"min":[
				-1.885615348815918,
				-0.7939181923866272,
				-0.6149566173553467
			],
			"type":"VEC3"
		},
		{
			"bufferView":1,
			"componentType":5126,
			"count":326,
			"type":"VEC3"
		},
		{
			"bufferView":2,
			"componentType":5126,
			"count":326,
			"type":"VEC2"
		},
		{
			"bufferView":3,
			"componentType":5123,
			"count":600,
			"type":"SCALAR"
		},
		{
			"bufferView":4,
			"componentType":5126,
			"count":6,
			"max":[
				1.6492079496383667,
				1.179935097694397,
				0.29937759041786194
			],
			"min":[
				1.4812990427017212,
				1.0560628175735474,
				-0.29937663674354553
			],
			"type":"VEC3"
		},
		{
			"bufferView":5,
			"componentType":5126,
			"count":6,
			"type":"VEC3"
		},
		{
			"bufferView":6,
			"componentType":5126,
			"count":6,
			"type":"VEC2"
		},
		{
			"bufferView":7,
			"componentType":5123,
			"count":12,
			"type":"SCALAR"
		}
	],
	"bufferViews":[
		{
			"buffer":0,
			"byteLength":3912,
			"byteOffset":0,
			"target":34962
		},
		{
			"buffer":0,
			"byteLength":3912,
			"byteOffset":3912,
			"target":34962
		},
		{
			"buffer":0,
			"byteLength":2608,
			"byteOffset":7824,
			"target":34962
		},
		{
			"buffer":0,
			"byteLength":1200,
			"byteOffset":10432,
			"target":34963
		},
		{
			"buffer":0,
			"byteLength":72,
			"byteOffset":11632,
			"target":34962
		},
		{
			"buffer":0,
			"byteLength":72,
			"byteOffset":11704,
			"target":34962
		},
		{
			"buffer":0,
			"byteLength":48,
			"byteOffset":11776,
			"target":34962
		},
		{
			"buffer":0,
			"byteLength":24,
			"byteOffset":11824,
			"target":34963
		}
	],
	"buffers":[
		{
			"byteLength":11848,
			"uri":"data:application/octet-stream;base64,"
		}
	]
}
