{
	"asset":{
		"generator":"Khronos glTF Blender I/O v3.6.28",
		"version":"2.0"
	},
	"extensionsUsed":[
		"KHR_materials_transmission",
		"KHR_materials_emissive_strength",
		"KHR_materials_ior"
	],
	"scene":0,
	"scenes":[
		{
			"name":"Scene",
			"nodes":[
				0
			]
		}
	],
	"nodes":[
		{
			"mesh":0,
			"name":"Plane.001",
			"rotation":[
				0,
				0,
				0.7071068286895752,
				0.7071068286895752
			],
			"scale":[
				0.4895695149898529,
				1,
				0.5051203370094299
			],
			"translation":[
				0.09195300191640854,
				2.745500087738037,
				0
			]
		}
	],
	"materials":[
		{
			"doubleSided":true,
			"name":"Material.026",
			"pbrMetallicRoughness":{
				"baseColorFactor":[
					0.8000000715255737,
					0.4706220328807831,
					0.4293149411678314,
					1
				],
				"metallicFactor":0,
				"roughnessFactor":0.5
			}
		},
		{
			"doubleSided":true,
			"emissiveFactor":[
				1,
				0.887129545211792,
				0.3138572573661804
			],
			"extensions":{
				"KHR_materials_transmission":{
					"transmissionFactor":0.5595238208770752
				},
				"KHR_materials_emissive_strength":{
					"emissiveStrength":15.999999046325684
				},
				"KHR_materials_ior":{
					"ior":1.4500000476837158
				}
			},
			"name":"Material.007",
			"pbrMetallicRoughness":{
				"baseColorFactor":[
					0.03310380131006241,
					0.03310380131006241,
					0.03310380131006241,
					1
				],
				"metallicFactor":0,
				"roughnessFactor":0.5
			}
		}
	],
	"meshes":[
		{
			"name":"Plane.001",
			"primitives":[
				{
					"attributes":{
						"POSITION":0,
						"NORMAL":1,
						"TEXCOORD_0":2
					},
					"indices":3,
					"material":0
				},
				{
					"attributes":{
						"POSITION":4,
						"NORMAL":5,
						"TEXCOORD_0":6
					},
					"indices":7,
					"material":1
				}
			]
		}
	],
	"accessors":[
		{
			"bufferView":0,
			"componentType":5126,
			"count":424,
			"max":[
				1.4652438163757324,
				1.1407763957977295,
				1.716243863105774
			],
			"min":[
				-0.7530975341796875,
				-0.8997416496276855,
				-1.7702866792678833
			],
			"type":"VEC3"
		},
		{
			"bufferView":1,
			"componentType":5126,
			"count":424,
			"type":"VEC3"
		},
		{
			"bufferView":2,
			"componentType":5126,
			"count":424,
			"type":"VEC2"
		},
		{
			"bufferView":3,
			"componentType":5123,
			"count":672,
			"type":"SCALAR"
		},
		{
			"bufferView":4,
			"componentType":5126,
			"count":16,
			"max":[
				0.5623849630355835,
				1.0183690786361694,
				1.5677064657211304
			],
			"min":[
				0.3802225589752197,
				-0.07589530944824219,
				-1.6217492818832397
			],
			"type":"VEC3"
		},
		{
			"bufferView":5,
			"componentType":5126,
			"count":16,
			"type":"VEC3"
		},
		{
			"bufferView":6,
			"componentType":5126,
			"count":16,
			"type":"VEC2"
		},
		{
			"bufferView":7,
			"componentType":5123,
			"count":24,
			"type":"SCALAR"
		}
	],
	"bufferViews":[
		{
			"buffer":0,
			"byteLength":5088,
			"byteOffset":0,
			"target":34962
		},
		{
			"buffer":0,
			"byteLength":5088,
			"byteOffset":5088,
			"target":34962
		},
		{
			"buffer":0,
			"byteLength":3392,
			"byteOffset":10176,
			"target":34962
		},
		{
			"buffer":0,
			"byteLength":1344,
			"byteOffset":13568,
			"target":34963
		},
		{
			"buffer":0,
			"byteLength":192,
			"byteOffset":14912,
			"target":34962
		},
		{
			"buffer":0,
			"byteLength":192,
			"byteOffset":15104,
			"target":34962
		},
		{
			"buffer":0,
			"byteLength":128,
			"byteOffset":15296,
			"target":34962
		},
		{
			"buffer":0,
			"byteLength":48,
			"byteOffset":15424,
			"target":34963
		}
	],
	"buffers":[
		{
			"byteLength":15472,
			"uri":"data:application/octet-stream;base64,"
		}
	]
}
