{
	"asset":{
		"generator":"Khronos glTF Blender I/O v3.6.28",
		"version":"2.0"
	},
	"scene":0,
	"scenes":[
		{
			"name":"Scene",
			"nodes":[
				0,
				1,
				2
			]
		}
	],
	"nodes":[
		{
			"mesh":0,
			"name":"Sphere",
			"rotation":[
				0,
				-1,
				0,
				7.549790126404332e-08
			],
			"scale":[
				0.2601073682308197,
				0.2601073682308197,
				0.2601073682308197
			],
			"translation":[
				0.2830793857574463,
				7.100625991821289,
				0
			]
		},
		{
			"mesh":1,
			"name":"Cube.043",
			"rotation":[
				-0.5000000596046448,
				-0.5,
				0.5,
				0.5
			],
			"scale":[
				-0.8699424862861633,
				-0.22136253118515015,
				-0.21237778663635254
			],
			"translation":[
				0,
				-8.654618263244629,
				-1.432861566543579
			]
		},
		{
			"mesh":2,
			"name":"Cube.073",
			"rotation":[
				-0.5000000596046448,
				-0.5,
				0.5,
				0.5
			],
			"scale":[
				-0.8699424862861633,
				-0.22136253118515015,
				-0.21237778663635254
			],
			"translation":[
				0,
				-8.654618263244629,
				-1.432861566543579
			]
		}
	],
	"materials":[
		{
			"doubleSided":true,
			"name":"Material.002",
			"pbrMetallicRoughness":{
				"baseColorFactor":[
					0.03310380131006241,
					0.03310380131006241,
					0.03310380131006241,
					1
				],
				"metallicFactor":0,
				"roughnessFactor":0.5
			}
		},
		{
			"doubleSided":true,
			"name":"Material.015",
			"pbrMetallicRoughness":{
				"baseColorFactor":[
					0.03310380131006241,
					0.03310380131006241,
					0.03310380131006241,
					1
				],
				"metallicFactor":0,
				"roughnessFactor":0.5
			}
		},
		{
			"doubleSided":true,
			"name":"Material.017",
			"pbrMetallicRoughness":{
				"baseColorFactor":[
					0.03310380131006241,
					0.03310380131006241,
					0.03310380131006241,
					1
				],
				"metallicFactor":0,
				"roughnessFactor":0.5
			}
		},
		{
			"doubleSided":true,
			"name":"Material.021",
			"pbrMetallicRoughness":{
				"baseColorFactor":[
					0.03310380131006241,
					0.03310380131006241,
					0.03310380131006241,
					1
				],
				"metallicFactor":0,
				"roughnessFactor":0.5
			}
		},
		{
			"doubleSided":true,
			"name":"Material.008",
			"pbrMetallicRoughness":{
				"baseColorFactor":[
					0.03310380131006241,
					0.03310380131006241,
					0.03310380131006241,
					1
				],
				"metallicFactor":0,
				"roughnessFactor":0.5
			}
		},
		{
			"doubleSided":true,
			"name":"Material.011",
			"pbrMetallicRoughness":{
				"baseColorFactor":[
					0.03310380131006241,
					0.03310380131006241,
					0.03310380131006241,
					1
				],
				"metallicFactor":0,
				"roughnessFactor":0.5
			}
		},
		{
			"doubleSided":true,
			"name":"Material.005",
			"pbrMetallicRoughness":{
				"baseColorFactor":[
					0.03310380131006241,
					0.03310380131006241,
					0.03310380131006241,
					1
				],
				"metallicFactor":0,
				"roughnessFactor":0.5
			}
		},
		{
			"doubleSided":true,
			"name":"Material.019",
			"pbrMetallicRoughness":{
				"baseColorFactor":[
					0.03310380131006241,
					0.03310380131006241,
					0.03310380131006241,
					1
				],
				"metallicFactor":0,
				"roughnessFactor":0.5
			}
		},
		{
			"doubleSided":true,
			"name":"Material.020",
			"pbrMetallicRoughness":{
				"baseColorFactor":[
					0.03310380131006241,
					0.03310380131006241,
					0.03310380131006241,
					1
				],
				"metallicFactor":0,
				"roughnessFactor":0.5
			}
		}
	],
	"meshes":[
		{
			"name":"Sphere",
			"primitives":[
				{
					"attributes":{
						"POSITION":0,
						"NORMAL":1,
						"TEXCOORD_0":2
					},
					"indices":3,
					"material":0
				},
				{
					"attributes":{
						"POSITION":4,
						"NORMAL":5,
						"TEXCOORD_0":6
					},
					"indices":7,
					"material":1
				},
				{
					"attributes":{
						"POSITION":8,
						"NORMAL":9,
						"TEXCOORD_0":10
					},
					"indices":11,
					"material":2
				},
				{
					"attributes":{
						"POSITION":12,
						"NORMAL":13,
						"TEXCOORD_0":14
					},
					"indices":15,
					"material":3
				},
				{
					"attributes":{
						"POSITION":16,
						"NORMAL":17,
						"TEXCOORD_0":18
					},
					"indices":19,
					"material":4
				},
				{
					"attributes":{
						"POSITION":20,
						"NORMAL":21,
						"TEXCOORD_0":22
					},
					"indices":23,
					"material":5
				},
				{
					"attributes":{
						"POSITION":24,
						"NORMAL":25,
						"TEXCOORD_0":26
					},
					"indices":27,
					"material":6
				},
				{
					"attributes":{
						"POSITION":28,
						"NORMAL":29,
						"TEXCOORD_0":30
					},
					"indices":31,
					"material":7
				}
			]
		},
		{
			"name":"Cube.083",
			"primitives":[
				{
					"attributes":{
						"POSITION":32,
						"NORMAL":33,
						"TEXCOORD_0":34
					},
					"indices":35,
					"material":6
				}
			]
		},
		{
			"name":"Cube.105",
			"primitives":[
				{
					"attributes":{
						"POSITION":36,
						"NORMAL":37,
						"TEXCOORD_0":38
					},
					"indices":39,
					"material":8
				}
			]
		}
	],
	"accessors":[
		{
			"bufferView":0,
			"componentType":5126,
			"count":16964,
			"max":[
				8.15451431274414,
				1,
				19.82839584350586
			],
			"min":[
				-4.093075752258301,
				-29.94525146484375,
				-19.828399658203125
			],
			"type":"VEC3"
		},
		{
			"bufferView":1,
			"componentType":5126,
			"count":16964,
			"type":"VEC3"
		},
		{
			"bufferView":2,
			"componentType":5126,
			"count":16964,
			"type":"VEC2"
		},
		{
			"bufferView":3,
			"componentType":5123,
			"count":27990,
			"type":"SCALAR"
		},
		{
			"bufferView":4,
			"componentType":5126,
			"count":4352,
			"max":[
				1.8098236322402954,
				-22.543556213378906,
				7.894530773162842
			],
			"min":[
				0.36681067943573,
				-23.986568450927734,
				-7.894530773162842
			],
			"type":"VEC3"
		},
		{
			"bufferView":5,
			"componentType":5126,
			"count":4352,
			"type":"VEC3"
		},
		{
			"bufferView":6,
			"componentType":5126,
			"count":4352,
			"type":"VEC2"
		},
		{
			"bufferView":7,
			"componentType":5123,
			"count":6504,
			"type":"SCALAR"
		},
		{
			"bufferView":8,
			"componentType":5126,
			"count":4352,
			"max":[
				7.6968607902526855,
				-23.497161865234375,
				3.0011651515960693
			],
			"min":[
				6.562160015106201,
				-24.63186264038086,
				-3.0011630058288574
			],
			"type":"VEC3"
		},
		{
			"bufferView":9,
			"componentType":5126,
			"count":4352,
			"type":"VEC3"
		},
		{
			"bufferView":10,
			"componentType":5126,
			"count":4352,
			"type":"VEC2"
		},
		{
			"bufferView":11,
			"componentType":5123,
			"count":6504,
			"type":"SCALAR"
		},
		{
			"bufferView":12,
			"componentType":5126,
			"count":2176,
			"max":[
				-2.397143840789795,
				-22.528701782226562,
				0.7215045094490051
			],
			"min":[
				-5.5700249671936035,
				-23.971712112426758,
				-0.7215064167976379
			],
			"type":"VEC3"
		},
		{
			"bufferView":13,
			"componentType":5126,
			"count":2176,
			"type":"VEC3"
		},
		{
			"bufferView":14,
			"componentType":5126,
			"count":2176,
			"type":"VEC2"
		},
		{
			"bufferView":15,
			"componentType":5123,
			"count":3252,
			"type":"SCALAR"
		},
		{
			"bufferView":16,
			"componentType":5126,
			"count":896,
			"max":[
				1.59806227684021,
				-10.532133102416992,
				14.057820320129395
			],
			"min":[
				-2.1574149131774902,
				-16.68194580078125,
				-14.057820320129395
			],
			"type":"VEC3"
		},
		{
			"bufferView":17,
			"componentType":5126,
			"count":896,
			"type":"VEC3"
		},
		{
			"bufferView":18,
			"componentType":5126,
			"count":896,
			"type":"VEC2"
		},
		{
			"bufferView":19,
			"componentType":5123,
			"count":1512,
			"type":"SCALAR"
		},
		{
			"bufferView":20,
			"componentType":5126,
			"count":4696,
			"max":[
				0.8748183250427246,
				-25.144451141357422,
				19.82839584350586
			],
			"min":[
				-2.2199487686157227,
				-30.338233947753906,
				-19.828399658203125
			],
			"type":"VEC3"
		},
		{
			"bufferView":21,
			"componentType":5126,
			"count":4696,
			"type":"VEC3"
		},
		{
			"bufferView":22,
			"componentType":5126,
			"count":4696,
			"type":"VEC2"
		},
		{
			"bufferView":23,
			"componentType":5123,
			"count":7116,
			"type":"SCALAR"
		},
		{
			"bufferView":24,
			"componentType":5126,
			"count":8343,
			"max":[
				4.4392781257629395,
				-25.476505279541016,
				-0.5011725425720215
			],
			"min":[
				-2.118014335632324,
				-64.0479507446289,
				-7.8466668128967285
			],
			"type":"VEC3"
		},
		{
			"bufferView":25,
			"componentType":5126,
			"count":8343,
			"type":"VEC3"
		},
		{
			"bufferView":26,
			"componentType":5126,
			"count":8343,
			"type":"VEC2"
		},
		{
			"bufferView":27,
			"componentType":5123,
			"count":13062,
			"type":"SCALAR"
		},
		{
			"bufferView":28,
			"componentType":5126,
			"count":8344,
			"max":[
				4.439277172088623,
				-25.476497650146484,
				7.846669673919678
			],
			"min":[
				-2.1180167198181152,
				-64.0479507446289,
				0.5011739730834961
			],
			"type":"VEC3"
		},
		{
			"bufferView":29,
			"componentType":5126,
			"count":8344,
			"type":"VEC3"
		},
		{
			"bufferView":30,
			"componentType":5126,
			"count":8344,
			"type":"VEC2"
		},
		{
			"bufferView":31,
			"componentType":5123,
			"count":13062,
			"type":"SCALAR"
		},
		{
			"bufferView":32,
			"componentType":5126,
			"count":88,
			"max":[
				2.153064727783203,
				16.64927864074707,
				7.501729488372803
			],
			"min":[
				0.6747667193412781,
				9.24239444732666,
				-11.990304946899414
			],
			"type":"VEC3"
		},
		{
			"bufferView":33,
			"componentType":5126,
			"count":88,
			"type":"VEC3"
		},
		{
			"bufferView":34,
			"componentType":5126,
			"count":88,
			"type":"VEC2"
		},
		{
			"bufferView":35,
			"componentType":5123,
			"count":132,
			"type":"SCALAR"
		},
		{
			"bufferView":36,
			"componentType":5126,
			"count":88,
			"max":[
				2.1530637741088867,
				3.703442096710205,
				7.501729965209961
			],
			"min":[
				0.6747658252716064,
				-3.703442096710205,
				-11.990303993225098
			],
			"type":"VEC3"
		},
		{
			"bufferView":37,
			"componentType":5126,
			"count":88,
			"type":"VEC3"
		},
		{
			"bufferView":38,
			"componentType":5126,
			"count":88,
			"type":"VEC2"
		},
		{
			"bufferView":39,
			"componentType":5123,
			"count":132,
			"type":"SCALAR"
		}
	],
	"bufferViews":[
		{
			"buffer":0,
			"byteLength":203568,
			"byteOffset":0,
			"target":34962
		},
		{
			"buffer":0,
			"byteLength":203568,
			"byteOffset":203568,
			"target":34962
		},
		{
			"buffer":0,
			"byteLength":135712,
			"byteOffset":407136,
			"target":34962
		},
		{
			"buffer":0,
			"byteLength":55980,
			"byteOffset":542848,
			"target":34963
		},
		{
			"buffer":0,
			"byteLength":52224,
			"byteOffset":598828,
			"target":34962
		},
		{
			"buffer":0,
			"byteLength":52224,
			"byteOffset":651052,
			"target":34962
		},
		{
			"buffer":0,
			"byteLength":34816,
			"byteOffset":703276,
			"target":34962
		},
		{
			"buffer":0,
			"byteLength":13008,
			"byteOffset":738092,
			"target":34963
		},
		{
			"buffer":0,
			"byteLength":52224,
			"byteOffset":751100,
			"target":34962
		},
		{
			"buffer":0,
			"byteLength":52224,
			"byteOffset":803324,
			"target":34962
		},
		{
			"buffer":0,
			"byteLength":34816,
			"byteOffset":855548,
			"target":34962
		},
		{
			"buffer":0,
			"byteLength":13008,
			"byteOffset":890364,
			"target":34963
		},
		{
			"buffer":0,
			"byteLength":26112,
			"byteOffset":903372,
			"target":34962
		},
		{
			"buffer":0,
			"byteLength":26112,
			"byteOffset":929484,
			"target":34962
		},
		{
			"buffer":0,
			"byteLength":17408,
			"byteOffset":955596,
			"target":34962
		},
		{
			"buffer":0,
			"byteLength":6504,
			"byteOffset":973004,
			"target":34963
		},
		{
			"buffer":0,
			"byteLength":10752,
			"byteOffset":979508,
			"target":34962
		},
		{
			"buffer":0,
			"byteLength":10752,
			"byteOffset":990260,
			"target":34962
		},
		{
			"buffer":0,
			"byteLength":7168,
			"byteOffset":1001012,
			"target":34962
		},
		{
			"buffer":0,
			"byteLength":3024,
			"byteOffset":1008180,
			"target":34963
		},
		{
			"buffer":0,
			"byteLength":56352,
			"byteOffset":1011204,
			"target":34962
		},
		{
			"buffer":0,
			"byteLength":56352,
			"byteOffset":1067556,
			"target":34962
		},
		{
			"buffer":0,
			"byteLength":37568,
			"byteOffset":1123908,
			"target":34962
		},
		{
			"buffer":0,
			"byteLength":14232,
			"byteOffset":1161476,
			"target":34963
		},
		{
			"buffer":0,
			"byteLength":100116,
			"byteOffset":1175708,
			"target":34962
		},
		{
			"buffer":0,
			"byteLength":100116,
			"byteOffset":1275824,
			"target":34962
		},
		{
			"buffer":0,
			"byteLength":66744,
			"byteOffset":1375940,
			"target":34962
		},
		{
			"buffer":0,
			"byteLength":26124,
			"byteOffset":1442684,
			"target":34963
		},
		{
			"buffer":0,
			"byteLength":100128,
			"byteOffset":1468808,
			"target":34962
		},
		{
			"buffer":0,
			"byteLength":100128,
			"byteOffset":1568936,
			"target":34962
		},
		{
			"buffer":0,
			"byteLength":66752,
			"byteOffset":1669064,
			"target":34962
		},
		{
			"buffer":0,
			"byteLength":26124,
			"byteOffset":1735816,
			"target":34963
		},
		{
			"buffer":0,
			"byteLength":1056,
			"byteOffset":1761940,
			"target":34962
		},
		{
			"buffer":0,
			"byteLength":1056,
			"byteOffset":1762996,
			"target":34962
		},
		{
			"buffer":0,
			"byteLength":704,
			"byteOffset":1764052,
			"target":34962
		},
		{
			"buffer":0,
			"byteLength":264,
			"byteOffset":1764756,
			"target":34963
		},
		{
			"buffer":0,
			"byteLength":1056,
			"byteOffset":1765020,
			"target":34962
		},
		{
			"buffer":0,
			"byteLength":1056,
			"byteOffset":1766076,
			"target":34962
		},
		{
			"buffer":0,
			"byteLength":704,
			"byteOffset":1767132,
			"target":34962
		},
		{
			"buffer":0,
			"byteLength":264,
			"byteOffset":1767836,
			"target":34963
		}
	],
	"buffers":[
		{
			"byteLength":1768100,
			"uri":"custombot_skeleton.bin"
		}
	]
}
